<svg width="412" height="440" viewBox="0 0 412 440" fill="none" xmlns="http://www.w3.org/2000/svg">
<path fill-rule="evenodd" clip-rule="evenodd" d="M3.18309 43.8933C17.1412 30.957 37.2838 20.082 58.7668 12.8997C80.249 5.71767 102.932 2.27483 121.925 4.0812C149.714 6.72416 179.162 22.9977 199.379 41.9714C211.982 53.7994 227.363 69.6453 240.307 86.9701C253.273 104.324 263.684 123.018 266.531 140.554C266.733 141.799 266.872 143.043 266.951 144.285C249.283 135.584 231.021 127.88 211.633 123.748C195.298 120.266 175.74 120.018 158.593 125.251C141.418 130.494 126.547 141.286 119.962 159.921C112.96 179.737 119.841 197.248 132.773 209.186C145.653 221.076 164.615 227.536 182.136 225.439C199.755 223.331 223.19 212.453 241.385 197.01C256.927 183.818 268.982 166.996 269.967 149.14C276.588 152.474 283.154 155.93 289.699 159.375L289.7 159.376L290.327 159.706C293.214 161.225 296.12 162.74 299.035 164.259L299.041 164.262L299.041 164.262C323.486 177.001 348.56 190.067 368.067 209.2C381.753 222.623 391.635 236.601 397.28 251.916C402.92 267.219 404.36 283.943 401.04 302.914C395.935 332.074 385.236 364.945 366.336 387.903C365.809 388.543 365.901 389.488 366.541 390.015C367.18 390.541 368.125 390.45 368.652 389.81C388.028 366.274 398.852 332.813 403.995 303.431C407.397 283.994 405.936 266.729 400.095 250.879C394.258 235.041 384.079 220.701 370.168 207.058C350.319 187.591 324.828 174.312 300.437 161.605L300.425 161.599C297.505 160.078 294.601 158.565 291.724 157.051L290.927 156.632C284.026 152.998 277.069 149.336 270.021 145.809C269.977 143.906 269.804 141.993 269.492 140.073C266.529 121.823 255.776 102.661 242.711 85.1745C229.624 67.6588 214.107 51.6797 201.432 39.7838C180.877 20.493 150.836 3.81731 122.209 1.09468C102.692 -0.761477 79.5795 2.77827 57.8156 10.0545C36.0526 17.3304 15.4984 28.3892 1.14384 41.6929C0.536233 42.2561 0.500173 43.2051 1.0633 43.8127C1.62642 44.4203 2.57548 44.4564 3.18309 43.8933ZM211.008 126.682C230.584 130.854 249.024 138.736 267.02 147.666C266.628 164.782 255.169 181.376 239.443 194.723C221.589 209.876 198.687 220.437 181.779 222.461C165.165 224.449 147.068 218.299 134.807 206.981C122.598 195.711 116.256 179.415 122.791 160.921C128.975 143.418 142.936 133.167 159.469 128.121C176.032 123.066 195.061 123.283 211.008 126.682ZM333.895 364.291C333.776 363.471 333.015 362.903 332.196 363.022C331.376 363.141 330.807 363.902 330.926 364.721C331.959 371.85 332.904 379.047 333.852 386.263L333.853 386.272C335.586 399.47 337.327 412.732 339.631 425.756C339.696 426.121 339.763 426.517 339.835 426.936L339.837 426.948C340.096 428.465 340.408 430.29 340.815 432.079C341.332 434.346 342.041 436.741 343.103 438.512C343.44 439.074 343.981 439.231 344.264 439.27C344.541 439.309 344.78 439.271 344.913 439.245C345.195 439.189 345.483 439.08 345.726 438.976C346.237 438.758 346.906 438.41 347.682 437.977C349.251 437.102 351.435 435.781 354.039 434.174C355.647 433.182 357.421 432.078 359.321 430.895C363.595 428.235 368.506 425.178 373.605 422.105C380.969 417.667 388.676 413.227 395.335 409.949C398.666 408.31 401.706 406.975 404.291 406.078C406.919 405.165 408.917 404.762 410.229 404.841C411.056 404.891 411.767 404.261 411.816 403.434C411.866 402.607 411.236 401.896 410.409 401.847C408.478 401.731 406.011 402.305 403.307 403.244C400.559 404.198 397.397 405.591 394.011 407.258C387.234 410.593 379.44 415.086 372.057 419.535C366.939 422.62 361.993 425.698 357.711 428.363L357.703 428.368C355.813 429.545 354.052 430.641 352.463 431.621C349.857 433.229 347.724 434.519 346.221 435.357C345.799 435.592 345.441 435.784 345.144 435.935C344.587 434.687 344.128 433.112 343.74 431.412C343.353 429.713 343.06 428 342.803 426.492L342.803 426.491L342.802 426.49C342.727 426.052 342.656 425.631 342.585 425.233C340.292 412.267 338.568 399.132 336.842 385.985L336.841 385.978C335.891 378.745 334.941 371.507 333.895 364.291Z" fill="white"/>
</svg>
