<svg width="164" height="45" viewBox="0 0 164 45" fill="none" xmlns="http://www.w3.org/2000/svg">
<path d="M67.98 34.3C66.34 34.3 64.85 33.99 63.51 33.37C62.17 32.73 61.11 31.77 60.33 30.49C59.55 29.21 59.16 27.6 59.16 25.66V11.8H63.24V25.66C63.24 27.02 63.62 28.16 64.38 29.08C65.16 30 66.36 30.46 67.98 30.46C69.62 30.46 70.83 30 71.61 29.08C72.39 28.16 72.78 27.02 72.78 25.66V11.8H76.83V25.66C76.83 27.6 76.44 29.21 75.66 30.49C74.88 31.77 73.82 32.73 72.48 33.37C71.16 33.99 69.66 34.3 67.98 34.3ZM81.162 34V11.8H85.242V34H81.162ZM97.043 34.3C95.683 34.3 94.493 34.07 93.473 33.61C92.453 33.13 91.603 32.5 90.923 31.72C90.243 30.92 89.733 30.03 89.393 29.05C89.073 28.07 88.913 27.07 88.913 26.05C88.913 25.03 89.073 24.03 89.393 23.05C89.733 22.07 90.233 21.19 90.893 20.41C91.573 19.61 92.423 18.98 93.443 18.52C94.463 18.04 95.663 17.8 97.043 17.8C98.403 17.8 99.533 18 100.433 18.4C101.333 18.8 102.043 19.3 102.563 19.9C103.103 20.5 103.503 21.1 103.763 21.7C104.023 22.28 104.193 22.77 104.273 23.17C104.353 23.57 104.393 23.77 104.393 23.77H100.643C100.643 23.77 100.603 23.64 100.523 23.38C100.443 23.1 100.283 22.78 100.043 22.42C99.803 22.06 99.443 21.74 98.963 21.46C98.503 21.18 97.883 21.04 97.103 21.04C96.183 21.04 95.403 21.28 94.763 21.76C94.143 22.22 93.673 22.83 93.353 23.59C93.033 24.35 92.873 25.17 92.873 26.05C92.873 26.93 93.033 27.75 93.353 28.51C93.673 29.27 94.143 29.89 94.763 30.37C95.403 30.83 96.183 31.06 97.103 31.06C97.883 31.06 98.503 30.92 98.963 30.64C99.443 30.36 99.803 30.04 100.043 29.68C100.283 29.32 100.443 29.01 100.523 28.75C100.603 28.47 100.643 28.33 100.643 28.33H104.393C104.393 28.33 104.353 28.53 104.273 28.93C104.193 29.33 104.023 29.83 103.763 30.43C103.503 31.01 103.103 31.6 102.563 32.2C102.043 32.8 101.333 33.3 100.433 33.7C99.533 34.1 98.403 34.3 97.043 34.3ZM115.676 34.3C113.936 34.3 112.456 33.91 111.236 33.13C110.016 32.35 109.086 31.34 108.446 30.1C107.826 28.84 107.516 27.49 107.516 26.05C107.516 24.61 107.826 23.27 108.446 22.03C109.086 20.77 110.016 19.75 111.236 18.97C112.456 18.19 113.936 17.8 115.676 17.8C117.436 17.8 118.916 18.19 120.116 18.97C121.336 19.75 122.256 20.77 122.876 22.03C123.516 23.27 123.836 24.61 123.836 26.05C123.836 27.49 123.516 28.84 122.876 30.1C122.256 31.34 121.336 32.35 120.116 33.13C118.916 33.91 117.436 34.3 115.676 34.3ZM115.676 30.97C116.576 30.97 117.326 30.74 117.926 30.28C118.546 29.82 119.016 29.22 119.336 28.48C119.656 27.72 119.816 26.91 119.816 26.05C119.816 25.17 119.656 24.36 119.336 23.62C119.016 22.88 118.546 22.28 117.926 21.82C117.326 21.36 116.576 21.13 115.676 21.13C114.796 21.13 114.046 21.36 113.426 21.82C112.806 22.28 112.336 22.88 112.016 23.62C111.696 24.36 111.536 25.17 111.536 26.05C111.536 26.91 111.696 27.72 112.016 28.48C112.336 29.22 112.806 29.82 113.426 30.28C114.046 30.74 114.796 30.97 115.676 30.97ZM133.99 34.3C132.81 34.3 131.78 34.07 130.9 33.61C130.02 33.13 129.28 32.5 128.68 31.72C128.1 30.92 127.66 30.03 127.36 29.05C127.08 28.07 126.94 27.07 126.94 26.05C126.94 25.03 127.08 24.03 127.36 23.05C127.66 22.07 128.1 21.19 128.68 20.41C129.28 19.61 130.02 18.98 130.9 18.52C131.78 18.04 132.81 17.8 133.99 17.8C135.01 17.8 135.85 17.97 136.51 18.31C137.17 18.63 137.69 18.99 138.07 19.39C138.45 19.77 138.71 20.08 138.85 20.32H139.03V11.2H143.02V34H139.03V31.78H138.85C138.71 32.02 138.45 32.34 138.07 32.74C137.69 33.14 137.17 33.5 136.51 33.82C135.85 34.14 135.01 34.3 133.99 34.3ZM135.04 31.03C135.94 31.03 136.69 30.79 137.29 30.31C137.89 29.81 138.34 29.18 138.64 28.42C138.94 27.66 139.09 26.87 139.09 26.05C139.09 25.23 138.94 24.44 138.64 23.68C138.34 22.92 137.89 22.3 137.29 21.82C136.69 21.32 135.94 21.07 135.04 21.07C134.14 21.07 133.38 21.32 132.76 21.82C132.16 22.3 131.71 22.92 131.41 23.68C131.11 24.44 130.96 25.23 130.96 26.05C130.96 26.87 131.11 27.66 131.41 28.42C131.71 29.18 132.16 29.81 132.76 30.31C133.38 30.79 134.14 31.03 135.04 31.03ZM154.606 34.3C153.246 34.3 152.066 34.07 151.066 33.61C150.086 33.13 149.266 32.5 148.606 31.72C147.966 30.92 147.486 30.03 147.166 29.05C146.846 28.07 146.686 27.07 146.686 26.05C146.686 25.03 146.836 24.04 147.136 23.08C147.456 22.1 147.926 21.21 148.546 20.41C149.186 19.61 149.996 18.98 150.976 18.52C151.956 18.04 153.116 17.8 154.456 17.8C155.896 17.8 157.166 18.12 158.266 18.76C159.366 19.4 160.226 20.34 160.846 21.58C161.466 22.8 161.776 24.32 161.776 26.14V27.16H150.706C150.766 28.24 151.136 29.18 151.816 29.98C152.496 30.76 153.426 31.15 154.606 31.15C155.286 31.15 155.846 31.04 156.286 30.82C156.726 30.6 157.066 30.35 157.306 30.07C157.546 29.77 157.716 29.52 157.816 29.32C157.916 29.1 157.966 28.99 157.966 28.99H161.656C161.656 28.99 161.606 29.17 161.506 29.53C161.406 29.87 161.216 30.31 160.936 30.85C160.676 31.37 160.286 31.9 159.766 32.44C159.246 32.96 158.566 33.4 157.726 33.76C156.886 34.12 155.846 34.3 154.606 34.3ZM150.706 24.55H157.936C157.876 23.31 157.506 22.39 156.826 21.79C156.146 21.19 155.346 20.89 154.426 20.89C153.406 20.89 152.556 21.22 151.876 21.88C151.196 22.52 150.806 23.41 150.706 24.55Z" fill="white"/>
<circle cx="22.5" cy="22.5" r="22.5" fill="url(#paint0_linear_3_47)"/>
<path fill-rule="evenodd" clip-rule="evenodd" d="M16.0385 25.8771C16.3979 26.3145 17.0049 26.5332 17.8594 26.5332C18.2832 26.5332 18.6596 26.4535 18.9885 26.2941C19.3174 26.1348 19.5751 25.9059 19.7616 25.6075C19.9515 25.3057 20.0465 24.9446 20.0465 24.5241V23.1915H18.2001V24.4733C18.2001 24.6428 18.1679 24.792 18.1035 24.9209C18.0425 25.0463 17.9323 25.109 17.7729 25.109C17.6169 25.109 17.505 25.0446 17.4372 24.9158C17.3694 24.7835 17.3355 24.6394 17.3355 24.4834V20.7857C17.3355 20.3619 17.4847 20.1499 17.7831 20.1499C17.9526 20.1499 18.0628 20.211 18.1137 20.333C18.1645 20.4517 18.19 20.5992 18.19 20.7756V21.8437H20.0465V20.6789C20.0465 20.2618 19.9498 19.9092 19.7565 19.621C19.5633 19.3327 19.2988 19.114 18.9631 18.9648C18.6308 18.8156 18.2544 18.741 17.8339 18.741C17.2304 18.741 16.759 18.8462 16.42 19.0564C16.0809 19.2666 15.8435 19.5837 15.7079 20.0075C15.5722 20.4314 15.5044 20.962 15.5044 21.5995V23.9494C15.5044 24.7971 15.6824 25.4397 16.0385 25.8771ZM20.6212 24.1681C20.6212 25.7448 21.3808 26.5332 22.8999 26.5332C24.4223 26.5332 25.1836 25.7448 25.1836 24.1681V21.1062C25.1836 20.3873 24.9818 19.8142 24.5783 19.387C24.1748 18.9564 23.6153 18.741 22.8999 18.741C22.1878 18.741 21.63 18.9564 21.2265 19.387C20.823 19.8142 20.6212 20.3873 20.6212 21.1062V24.1681ZM23.2254 24.9666C23.1609 25.0751 23.0524 25.1294 22.8999 25.1294C22.7473 25.1294 22.6371 25.0751 22.5692 24.9666C22.5048 24.8547 22.4726 24.714 22.4726 24.5445V20.8162C22.4726 20.372 22.615 20.1499 22.8999 20.1499C23.1847 20.1499 23.3271 20.372 23.3271 20.8162V24.5445C23.3271 24.714 23.2932 24.8547 23.2254 24.9666ZM26.5213 26.3399C26.7281 26.4688 27.0079 26.5332 27.3605 26.5332C27.6792 26.5332 27.9217 26.4535 28.0878 26.2941C28.2574 26.1348 28.393 25.9178 28.4947 25.6431V26.4518H30.3461V17.5H28.4947V19.6362C28.3862 19.3548 28.232 19.1361 28.0319 18.9801C27.8352 18.8207 27.5521 18.741 27.1825 18.741C26.684 18.741 26.3297 18.9225 26.1195 19.2853C25.9126 19.6481 25.8092 20.1228 25.8092 20.7094V24.0257C25.8092 24.3749 25.8245 24.7021 25.855 25.0073C25.8889 25.3125 25.9567 25.5787 26.0584 25.8059C26.1601 26.0331 26.3144 26.2111 26.5213 26.3399ZM28.4032 24.9005C28.3455 25.0395 28.2303 25.109 28.0573 25.109C27.7657 25.109 27.6199 24.7903 27.6199 24.1528V20.9434C27.6199 20.7467 27.6453 20.5653 27.6962 20.3992C27.7471 20.233 27.8708 20.1499 28.0675 20.1499C28.2472 20.1499 28.3625 20.2381 28.4134 20.4144C28.4676 20.5874 28.4947 20.7637 28.4947 20.9434V24.1528C28.4947 24.5123 28.4642 24.7615 28.4032 24.9005ZM31.8873 26.228C32.2094 26.4315 32.6417 26.5332 33.1843 26.5332C33.7607 26.5332 34.2151 26.4366 34.5474 26.2433C34.8831 26.0466 35.1204 25.7567 35.2595 25.3735C35.4019 24.987 35.4731 24.5089 35.4731 23.9392L33.6624 24.2393C33.6624 24.5038 33.6386 24.7191 33.5912 24.8853C33.5437 25.048 33.425 25.1294 33.2351 25.1294C33.1029 25.1294 33.0063 25.087 32.9452 25.0022C32.8876 24.9175 32.8503 24.8107 32.8333 24.6818C32.8164 24.5496 32.8079 24.4156 32.8079 24.28V22.805H35.4527C35.4663 22.5744 35.4731 22.1234 35.4731 21.452V20.8976C35.4731 19.4599 34.7407 18.741 33.2758 18.741C32.5638 18.741 32.0043 18.9242 31.5974 19.2904C31.1905 19.6532 30.987 20.1889 30.987 20.8976V23.9646C30.987 24.5038 31.0565 24.9649 31.1955 25.3481C31.3346 25.7313 31.5651 26.0246 31.8873 26.228ZM33.6624 21.8996H32.7977V20.8722C32.7977 20.5874 32.8367 20.3873 32.9147 20.272C32.9961 20.1567 33.1097 20.0991 33.2555 20.0991C33.3911 20.0991 33.4928 20.1601 33.5607 20.2822C33.6285 20.4009 33.6624 20.5975 33.6624 20.8722V21.8996ZM9.87592 27.0853C10.1404 27.3981 10.5524 27.5545 11.1119 27.5545C11.6714 27.5545 12.0834 27.3981 12.3478 27.0853C12.6123 26.77 12.7446 26.3071 12.7446 25.6968V20.7796H11.4399V25.6434C11.4399 25.7553 11.4336 25.8633 11.4209 25.9676C11.4107 26.0719 11.3827 26.1571 11.3369 26.2232C11.2912 26.2868 11.2161 26.3186 11.1119 26.3186C11.0102 26.3186 10.9364 26.2855 10.8906 26.2194C10.8448 26.1533 10.8156 26.0693 10.8029 25.9676C10.7902 25.8633 10.7838 25.7553 10.7838 25.6434V20.7796H9.47919V25.6968C9.47919 26.3071 9.61143 26.77 9.87592 27.0853ZM13.1985 20.7796V27.4935L14.4955 27.0853V20.7796H13.1985Z" fill="white"/>
<defs>
<linearGradient id="paint0_linear_3_47" x1="22.5" y1="0" x2="22.5" y2="45" gradientUnits="userSpaceOnUse">
<stop offset="0.166667" stop-color="#7838FF"/>
<stop offset="1" stop-color="#A174FF"/>
</linearGradient>
</defs>
</svg>
